<svg xmlns="http://www.w3.org/2000/svg" version="1.1" xmlns:xlink="http://www.w3.org/1999/xlink" xmlns:svgjs="http://svgjs.dev/svgjs" width="2000" height="1500" viewBox="0 0 2000 1500"><rect width="2000" height="1500" fill="#97978d"></rect><g transform="matrix(0.75,0,0,0.75,249.090909090909,282.7536437246963)"><svg viewBox="0 0 396 247" data-background-color="#97978d" preserveAspectRatio="xMidYMid meet" height="1247" width="2000" xmlns="http://www.w3.org/2000/svg" xmlns:xlink="http://www.w3.org/1999/xlink"><g id="tight-bounds" transform="matrix(1,0,0,1,0.2400000000000091,-0.09999999999999432)"><svg viewBox="0 0 395.52 247.2" height="247.2" width="395.52"><g><svg></svg></g><g><svg viewBox="0 0 395.52 247.2" height="247.2" width="395.52"><g><g><path d="M359.043 26.584l-9.866-0.549h-3.289c-2.706 8.277-8.213 16.027-16.522 23.251l-8.364 0c8.741-7.295 14.753-14.862 18.035-22.702-13.337 1.644-24.446 5.7-33.326 12.168-5.134 3.776-8.778 7.288-10.931 10.534l-8.061 0c2.642-4.608 7.383-9.581 14.224-14.919 11.145-8.66 24.482-13.721 40.012-15.183v-1.096c0-9.318-7.948-13.977-23.843-13.977-24.482 0-46.316 14.434-65.5 43.301-0.408 0.624-0.814 1.249-1.219 1.874l-11.261 0c4.833-6.565 9.596-12.452 14.289-17.66 8.295-9.208 18.252-16.791 29.872-22.747 11.584-5.92 23.953-8.879 37.108-8.879 18.088 0 27.132 5.938 27.132 17.814v0.822c4.75 0 8.861 0.365 12.332 1.096 1.096 0.365 1.644 1.59 1.644 3.673 0 2.119-0.822 3.179-2.466 3.179zM54.565 247.2c-6.212 0-11.2-1.498-14.964-4.495-3.727-3.033-5.591-6.925-5.59-11.674 0-4.75 2.229-9.592 6.687-14.525 4.495-4.933 11.255-9.775 20.28-14.526 2.718-1.425 5.775-2.78 9.173-4.066l35.735 0c-28.909 3.469-49.031 10.488-60.365 21.058-4.202 3.837-6.303 7.546-6.303 11.127 0 3.544 1.736 6.413 5.207 8.605 3.471 2.192 8.313 3.289 14.525 3.289 32.699 0 61.855-14.693 87.467-44.079l11.98 0c-29.656 32.857-64.266 49.286-103.832 49.286z" fill="#ffffff" fill-rule="nonzero" stroke="none" stroke-width="1" stroke-linecap="butt" stroke-linejoin="miter" stroke-miterlimit="10" stroke-dasharray="" stroke-dashoffset="0" font-family="none" font-weight="none" font-size="none" text-anchor="none" style="mix-blend-mode: normal" data-fill-palette-color="tertiary"></path></g></g><g transform="matrix(1,0,0,1,0,64.74775170775172)"><svg viewBox="0 0 395.52 117.70449658449657" height="117.70449658449657" width="395.52"><g><svg viewBox="0 0 395.52 117.70449658449657" height="117.70449658449657" width="395.52"><g><svg viewBox="0 0 395.52 117.70449658449657" height="117.70449658449657" width="395.52"><g><svg viewBox="0 0 395.52 117.70449658449657" height="117.70449658449657" width="395.52"><g id="textblocktransform"><svg viewBox="0 0 395.52 117.70449658449657" height="117.70449658449657" width="395.52" id="textblock"><g><svg viewBox="0 0 395.52 117.70449658449657" height="117.70449658449657" width="395.52"><g transform="matrix(1,0,0,1,0,0)"><svg width="395.52" viewBox="-18.3 -39.25 169.33 51.1" height="117.70449658449657" data-palette-color="#ffffff"><path d="M44-31.4L44-31.4 42.2-31.5 41.6-31.5Q40.75-28.9 37.88-26.68 35-24.45 32-24.45L32-24.45Q30.35-24.45 30.35-25.75L30.35-25.75Q30.35-27.6 33.4-29.98 36.45-32.35 40.7-32.75L40.7-32.75 40.7-32.95Q40.7-35.5 36.35-35.5L36.35-35.5Q29.65-35.5 24.4-27.6L24.4-27.6Q21.95-23.85 19.8-19.9L19.8-19.9Q13.1-7.35 9.4-2.55L9.4-2.55Q11.05-2.55 11.95-2.5L11.95-2.5 20.15-2.25Q23.2-2.25 23.73-2.18 24.25-2.1 24.25-1.9L24.25-1.9Q24.25-0.45 21.85-0.3L21.85-0.3Q15.25-0.5 7.8-0.6L7.8-0.6Q-0.45 8.85-11.55 8.85L-11.55 8.85Q-13.25 8.85-14.28 8.03-15.3 7.2-15.3 5.9-15.3 4.6-14.08 3.25-12.85 1.9-10.38 0.6-7.9-0.7-3.35-1.58 1.2-2.45 7.15-2.55L7.15-2.55Q11.1-7.9 15.9-17.1L15.9-17.1Q17.65-20.55 20.05-24.25 22.45-27.95 24.73-30.48 27-33 30.18-34.63 33.35-36.25 36.95-36.25L36.95-36.25Q41.9-36.25 41.9-33L41.9-33 41.9-32.85Q43.2-32.85 44.15-32.65L44.15-32.65Q44.45-32.55 44.45-31.98 44.45-31.4 44-31.4ZM-13.2 3.7L-13.2 3.7Q-14.35 4.75-14.35 5.73-14.35 6.7-13.4 7.3-12.45 7.9-10.75 7.9L-10.75 7.9Q-1.55 7.9 5.6-0.6L5.6-0.6Q-8.75-0.45-13.2 3.7ZM31.85-26.05L31.85-26.05Q31.85-25.25 32.85-25.25L32.85-25.25Q34.65-25.25 37.05-27.25 39.45-29.25 40.35-31.4L40.35-31.4Q36.7-30.95 34.27-29.18 31.85-27.4 31.85-26.05ZM33.95-15.25L33.95-15.25Q34.7-15.25 34.7-14.5 34.7-13.75 34-12.98 33.3-12.2 32.45-12.2L32.45-12.2Q31.75-12.2 31.75-13.18 31.75-14.15 32.55-14.7 33.35-15.25 33.95-15.25ZM29.25-8.65L29.25-8.65Q29.5-9.05 29.95-9.05 30.4-9.05 30.85-8.6L30.85-8.6Q30.85-8.4 30.2-7.7 29.55-7 28-4.58 26.45-2.15 26.45-1.35L26.45-1.35Q26.45-0.85 27.2-0.75L27.2-0.75Q28.2-0.75 30.3-1.73 32.4-2.7 34-3.7L34-3.7 35.6-4.7Q35.65-4.6 35.65-4.3 35.65-4 35.2-3.8L35.2-3.8Q28.45 0.8 25.8 0.8L25.8 0.8Q24.5 0.8 24.5-0.5 24.5-1.8 25.92-4.13 27.35-6.45 29.25-8.65ZM34.15-3.8L34.15-3.8Q35.1-4.35 36.65-5.55L36.65-5.55Q40.45-8.55 40.7-8.55L40.7-8.55Q41.45-8.55 41.45-7.9 41.45-7.25 40.67-5.9 39.9-4.55 38.92-3.1 37.95-1.65 37.8-1.35L37.8-1.35Q37.85-1.3 38.02-1.3 38.2-1.3 40-2.63 41.8-3.95 43.75-5.43 45.7-6.9 46.05-7.13 46.4-7.35 46.7-7.35L46.7-7.35Q47.3-7.3 47.3-6.65L47.3-6.65Q47.3-6.4 45.6-4.13 43.9-1.85 43.9-1.2L43.9-1.2Q43.9-0.75 44.97-0.75 46.05-0.75 48.15-1.73 50.25-2.7 51.84-3.7L51.84-3.7 53.45-4.7Q53.5-4.6 53.5-4.3 53.5-4 53.05-3.8L53.05-3.8Q46.3 0.8 43.65 0.8L43.65 0.8Q42.1 0.8 42.1-0.4L42.1-0.4Q42.1-1.55 42.77-2.6 43.45-3.65 43.95-4.38 44.45-5.1 44.45-5.15L44.45-5.15Q42.15-3.5 39-1.2 35.85 1.1 35.45 1.1L35.45 1.1Q35.15 1.1 35.15 0.4 35.15-0.3 37.12-3.25 39.1-6.2 39.1-6.4 39.1-6.6 39-6.6L39-6.6 38.5-6.35 36-4.35Q35.75-4.15 35.05-3.7 34.35-3.25 34.17-3.25 34-3.25 34-3.48 34-3.7 34.15-3.8ZM63.89-2.3L63.89-2.3 67.99-4.7Q68.04-4.6 68.04-4.3 68.04-4 67.59-3.8L67.59-3.8Q60.79 0.75 57.89 0.75L57.89 0.75Q55.39 0.75 55.39-2.55L55.39-2.55Q55.39-3.9 55.84-5.03 56.29-6.15 57.29-6.15L57.29-6.15Q60.74-6.15 62.67-7.2 64.59-8.25 64.59-9.38 64.59-10.5 62.99-10.5L62.99-10.5Q59.39-10.5 53.84-4L53.84-4Q52.14-0.8 51.29 0.9L51.29 0.9Q51.04 1.35 50.59 1.35L50.59 1.35Q49.59 1.35 49.59 0.65L49.59 0.65Q49.59 0.35 49.79-0.05L49.79-0.05 54.24-7.85Q58.49-15.35 62.94-21.35 67.39-27.35 69.64-27.35L69.64-27.35Q70.39-27.35 70.69-26.65L70.69-26.65Q70.84-26.4 70.84-26.05L70.84-26.05Q70.84-24.25 67.74-20.4 64.64-16.55 61.94-13.9 59.24-11.25 56.44-8.75L56.44-8.75 55.04-6.25Q60.44-11.75 64.44-11.75L64.44-11.75Q66.74-11.75 66.74-10.25L66.74-10.25Q66.74-8.6 64.17-6.95 61.59-5.3 57.74-5.3L57.74-5.3Q57.19-4.5 57.19-3.5L57.19-3.5Q57.19-0.7 59.39-0.7L59.39-0.7Q60.99-0.7 63.74-2.2L63.74-2.2Q63.84-2.3 63.89-2.3ZM69.19-25.5L69.19-25.5Q69.19-26 68.94-26L68.94-26Q66.19-26 57.49-10.7L57.49-10.7Q61.89-14.75 65.54-18.98 69.19-23.2 69.19-25.5ZM66.09 1.9L64.49 3.4Q63.34 3.4 62.94 2.65L62.94 2.65Q62.79 2.4 62.79 2.25 62.79 2.1 62.89 2L62.89 2Q67.44-1.35 73.69-8.5L73.69-8.5Q70.59-10.2 68.89-12.58 67.19-14.95 67.19-16.98 67.19-19 68.44-20.15 69.69-21.3 72.09-21.3L72.09-21.3Q76.64-21.3 79.84-16.05L79.84-16.05Q81.24-17.8 84.32-21.75 87.39-25.7 88.79-27.43 90.19-29.15 92.24-31.5L92.24-31.5Q96.04-35.7 97.99-35.7L97.99-35.7Q99.49-35.65 99.49-34.1L99.49-34.1Q99.49-32.45 98.37-29.58 97.24-26.7 96.57-25.03 95.89-23.35 94.57-20.58 93.24-17.8 92.49-16.18 91.74-14.55 90.19-11.38 88.64-8.2 88.04-6.95L88.04-6.95Q91.89-7.2 94.14-8.3L94.14-8.3Q94.54-8.5 94.64-8.75 94.74-9 94.92-9 95.09-9 95.27-8.8 95.44-8.6 95.44-8.4L95.44-8.4Q95.44-6.7 87.64-6.05L87.64-6.05Q85.69-2 84.94-0.2L84.94-0.2Q84.74 0.2 84.34 0.2L84.34 0.2Q83.29 0.2 83.29-1.8L83.29-1.8Q83.09-3.35 82.59-6.05L82.59-6.05Q78.64-6.35 75.19-7.8L75.19-7.8 75.19-7.75Q73.04-5.1 70.37-2.33 67.69 0.45 66.09 1.9L66.09 1.9ZM86.19-6.9L86.19-6.9Q97.64-30.7 97.64-33.45L97.64-33.45Q97.64-34.3 97.04-34.3L97.04-34.3Q96.14-34.3 94.52-32.5 92.89-30.7 91.89-29.5 90.89-28.3 89.24-26.18 87.59-24.05 86.52-22.65 85.44-21.25 83.49-18.63 81.54-16 80.59-14.75L80.59-14.75Q82.14-11.85 83.39-7.1L83.39-7.1Q84.59-6.9 86.19-6.9ZM79.29-15.3L79.29-15.3Q76.34-20.4 72.29-20.4L72.29-20.4Q70.49-20.4 69.59-19.65 68.69-18.9 68.69-17.43 68.69-15.95 70.37-13.78 72.04-11.6 74.89-9.95L74.89-9.95Q76.39-11.7 79.29-15.3ZM79.99-13.95L79.99-13.95Q78.39-11.8 76.29-9.15L76.29-9.15Q79.24-7.75 82.29-7.25L82.29-7.25Q81.24-11.45 79.99-13.95ZM85.74-5.95L85.74-5.95 83.64-5.95 84.24-2.8Q84.84-4 85.74-5.95ZM94.49 0.8L94.49 0.8Q92.24 0.8 92.24-1.65L92.24-1.65Q92.24-4.9 95.76-10.98 99.29-17.05 103.81-21.88 108.34-26.7 110.94-26.7L110.94-26.7Q111.89-26.7 111.89-25.35L111.89-25.35Q111.89-23.25 108.36-18.5 104.84-13.75 100.79-9.6 96.74-5.45 94.54-3.9L94.54-3.9Q94.44-3.1 94.44-2.83 94.44-2.55 94.49-2.2 94.54-1.85 94.89-1.3 95.24-0.75 96.06-0.75 96.89-0.75 98.99-1.73 101.09-2.7 102.69-3.7L102.69-3.7 104.29-4.7Q104.34-4.6 104.34-4.3 104.34-4 103.89-3.8L103.89-3.8Q97.14 0.8 94.49 0.8ZM110.09-24.15L110.09-24.15Q110.04-25.25 109.44-25.25L109.44-25.25Q107.89-25.25 104.74-21.75 101.59-18.25 98.64-13.38 95.69-8.5 94.79-5L94.79-5Q96.89-6.7 100.19-10 103.49-13.3 106.69-17.55 109.89-21.8 110.09-24.15ZM105.59-4.85L105.59-4.85Q102.59-4.85 102.59-6.15L102.59-6.15Q102.59-7.7 106.14-9.83 109.69-11.95 112.54-11.95L112.54-11.95Q113.99-11.95 113.99-11.05L113.99-11.05Q113.99-10.55 113.24-9.95 112.49-9.35 111.79-9 111.09-8.65 110.99-8.65L110.99-8.65Q110.69-8.65 110.59-8.9L110.59-8.9Q110.49-9.25 111.11-9.63 111.74-10 111.74-10.45 111.74-10.9 110.61-10.9 109.49-10.9 107.09-9.33 104.69-7.75 104.69-6.75L104.69-6.75Q104.69-6 106.44-6L106.44-6Q106.74-6 107.54-6.05 108.34-6.1 108.34-5.85 108.34-5.6 105.86-4.05 103.39-2.5 103.39-1.4L103.39-1.4Q103.39-0.15 105.01-0.15 106.64-0.15 108.69-1L108.69-1Q111.99-2.45 114.69-4.1L114.69-4.1 115.64-4.7Q115.69-4.6 115.69-4.3 115.69-4 115.24-3.8L115.24-3.8Q112.59-2 109.44-0.38 106.29 1.25 103.76 1.25 101.24 1.25 101.24-0.43 101.24-2.1 105.59-4.85ZM114.53-3.35L114.53-3.35Q114.33-3.25 114.16-3.25 113.98-3.25 113.98-3.45 113.98-3.65 114.13-3.8L114.13-3.8Q116.18-4.95 118.63-7.55L118.63-7.55Q116.38-8.25 116.38-9.53 116.38-10.8 118.08-12.38 119.78-13.95 121.28-13.95L121.28-13.95Q122.28-13.95 122.28-12.75L122.28-12.75Q122.28-10.9 120.43-8.8L120.43-8.8Q122.83-8.4 122.83-7.65L122.83-7.65Q122.83-6.65 121.96-6.13 121.08-5.6 119.93-4.25 118.78-2.9 118.78-1.55L118.78-1.55Q118.78-1.25 118.98-1 119.18-0.75 119.83-0.75 120.48-0.75 122.58-1.73 124.68-2.7 126.28-3.7L126.28-3.7 127.88-4.7Q127.93-4.6 127.93-4.3 127.93-4 127.48-3.8L127.48-3.8Q120.73 0.8 118.08 0.8L118.08 0.8Q116.78 0.8 116.78-0.5L116.78-0.5Q116.78-1.55 117.51-2.7 118.23-3.85 119.11-4.6 119.98-5.35 120.71-6.03 121.43-6.7 121.43-6.9 121.43-7.1 120.81-7.15 120.18-7.2 119.18-7.4L119.18-7.4Q116.43-4.45 114.53-3.35ZM117.63-10.3L117.63-10.3Q117.63-9.3 119.83-8.9L119.83-8.9Q121.13-10.5 121.13-11.68 121.13-12.85 120.38-12.85 119.63-12.85 118.63-11.98 117.63-11.1 117.63-10.3ZM127.53-16.5L127.53-16.5Q130.93-16.5 134.23-16.55L134.23-16.55Q139.58-23.4 141.53-23.4L141.53-23.4Q142.23-23.4 142.23-22.65L142.23-22.65Q142.23-20.25 138.73-16.65L138.73-16.65 142.53-16.7Q146.33-16.85 147.18-16.85 148.03-16.85 148.03-16.65L148.03-16.65Q148.03-15.7 146.73-15.65L146.73-15.65 137.33-15.25Q134.88-12.95 131.28-10.4L131.28-10.4Q127.48-4.15 127.48-1.9L127.48-1.9Q127.48-0.75 128.96-0.75 130.43-0.75 133.63-2.35L133.63-2.35 137.68-4.7Q137.73-4.6 137.73-4.3 137.73-4 137.28-3.8L137.28-3.8Q135.68-2.7 133.78-1.6L133.78-1.6Q129.73 0.45 127.58 0.45L127.58 0.45Q126.58 0.45 126.03 0.05 125.48-0.35 125.43-0.75L125.43-0.75 125.33-1.15Q125.33-2.85 127.63-6.88 129.93-10.9 133.08-15.1L133.08-15.1Q130.68-15 128.53-15 126.38-15 126.38-15.5L126.38-15.5Q126.38-16.45 127.53-16.5ZM140.68-21.6L140.68-21.6Q140.68-21.85 140.48-21.85L140.48-21.85Q139.33-21.85 135.38-16.6L135.38-16.6 137.88-16.6Q140.68-19.65 140.68-21.6ZM136.48-15.2L136.48-15.2Q134.88-15.2 134.33-15.15L134.33-15.15Q133.88-14.5 133.08-13.25 132.28-12 131.98-11.55L131.98-11.55Q134.58-13.45 136.48-15.2Z" opacity="1" transform="matrix(1,0,0,1,0,0)" fill="#ffffff" class="undefined-text-0" data-fill-palette-color="primary" id="text-0"></path></svg></g></svg></g></svg></g></svg></g><g></g></svg></g></svg></g></svg></g></svg></g><defs></defs></svg><rect width="395.52" height="247.2" fill="none" stroke="none" visibility="hidden"></rect></g></svg></g></svg>